<svg t="1680494430232" class="icon" viewBox="0 0 1024 1024" version="1.1"
    xmlns="http://www.w3.org/2000/svg" p-id="6744" width="20" height="20">
    <path
        d="M893.4 541.9V219.8c0-26.3-21.4-47.7-47.7-47.7h-80.5v-60.5c0-26.3-21.4-47.7-47.7-47.7H207.9c-26.3 0-47.7 21.4-47.7 47.7V540H146c-26.5 0-48 21.5-48 48v315.5c0 26.5 21.5 48 48 48h734.3c26.5 0 48-21.5 48-48V588c0-21.9-14.8-40.5-34.9-46.1z m-72-297.8V540h-56.2V244.1h56.2zM232.2 135.9h461V540h-64c-19.9 0-36 16.1-36 36v76h-160v-76c0-19.9-16.1-36-36-36h-165V135.9z m624.1 743.7H170V612h191.2v64c0 26.5 21.5 48 48 48h208c26.5 0 48-21.5 48-48v-64h191.2v267.6z"
        fill="#bfbfbf" p-id="6745"></path>
    <path
        d="M311.2 297h303c19.9 0 36-16.1 36-36s-16.1-36-36-36h-303c-19.9 0-36 16.1-36 36s16.1 36 36 36zM650.2 412.4c0-19.9-16.1-36-36-36h-303c-19.9 0-36 16.1-36 36s16.1 36 36 36h303c19.9 0 36-16.1 36-36z"
        fill="#bfbfbf" p-id="6746"></path>
</svg>